<svg viewBox="0 0 1078.438 1059.981" xmlns="http://www.w3.org/2000/svg"><path d="M9.847 570.82h102.686c56.69.053 102.633 45.996 102.686 102.68v.24c-.66 56.303-46.327 101.722-102.662 101.983H9.848zm135.04 102.593c-.08-17.817-14.53-32.233-32.352-32.26H80.18v64.238h32.352c17.716-.05 32.09-14.292 32.353-31.952v-.025zm71.738 247.196h-70.333v-90.027l.002-.47c0-30.038-24.352-54.39-54.39-54.39H80.18V920.61H9.845V705.39h82.058c68.883 0 124.724 55.84 124.724 124.724 0 .23 0 .462-.002.692v-.036zm232.568-9.847H279.456V570.82h169.737v70.334H349.79V840.43h99.403zm-44.544-135.04h-90.027v-70.332h90.026zM574.384 920.61h-70.333V570.82h105.5l74.083 221.83V560.973h70.333v349.79h-105.03l-74.553-223.238zm504.053-279.457h-269.61V570.82h269.61zM979.034 920.61H908.7V605.986h70.334zm99.404 124.723H0V975h1078.438zm-67.286-547.143L539.218 112.203 67.284 498.19 22.74 443.705 539.218 21.333l516.478 422.372z"/></svg>